<?xml version="1.0" standalone="no"?>
<!DOCTYPE svg PUBLIC "-//W3C//DTD SVG 20010904//EN"
 "http://www.w3.org/TR/2001/REC-SVG-20010904/DTD/svg10.dtd">
<svg version="1.0" xmlns="http://www.w3.org/2000/svg"
 width="192.000000pt" height="192.000000pt" viewBox="0 0 192.000000 192.000000"
 preserveAspectRatio="xMidYMid meet">
<metadata>
Created by Umobix
</metadata>
<g transform="translate(0.000000,192.000000) scale(0.100000,-0.100000)"
fill="#000000" stroke="none">
<path d="M314 1568 c-83 -87 -128 -153 -174 -251 -72 -154 -102 -333 -81 -492
50 -378 313 -676 679 -772 137 -35 306 -35 444 1 242 62 452 223 572 439 50
89 94 228 107 342 34 270 -75 565 -277 755 -33 31 -27 22 20 -30 318 -350 307
-877 -25 -1209 -110 -110 -251 -191 -404 -232 -114 -31 -316 -31 -430 0 -299
80 -535 305 -624 595 -89 289 -13 620 194 844 37 39 65 72 63 72 -3 0 -32 -28
-64 -62z"/>
<path d="M916 1308 c-14 -19 -16 -67 -16 -324 0 -279 1 -302 18 -317 24 -22
45 -21 65 1 14 16 17 53 19 272 l3 253 100 -249 c55 -137 110 -259 122 -271
53 -54 98 -17 152 124 23 60 50 126 60 148 10 22 36 85 57 140 l39 99 5 -253
c5 -235 6 -254 24 -267 24 -17 31 -17 57 -4 18 10 19 24 19 324 0 290 -1 314
-18 329 -26 23 -104 23 -125 0 -8 -10 -43 -88 -77 -173 -34 -85 -70 -175 -80
-200 -10 -25 -29 -71 -41 -103 -12 -32 -25 -54 -29 -50 -8 8 -83 191 -180 438
-17 44 -38 86 -47 93 -9 6 -38 12 -64 12 -38 0 -51 -5 -63 -22z"/>
<path d="M359 1119 c-7 -14 -10 -73 -7 -178 3 -140 6 -160 26 -196 33 -57 83
-87 157 -93 114 -9 195 50 215 158 13 68 13 271 0 304 -10 28 -49 36 -68 14
-6 -8 -12 -84 -14 -176 l-3 -164 -33 -29 c-25 -22 -42 -29 -73 -29 -49 0 -104
31 -113 63 -3 12 -6 90 -6 173 0 103 -4 154 -12 162 -19 19 -56 14 -69 -9z"/>
</g>
</svg>
